<svg width="142" height="97" viewBox="0 0 142 97" fill="none" xmlns="http://www.w3.org/2000/svg">
<g clip-path="url(#clip0_39_5)">
<mask id="mask0_39_5" style="mask-type:luminance" maskUnits="userSpaceOnUse" x="0" y="0" width="60" height="79">
<path d="M0 0H59.0885V78.2031H0V0Z" fill="white"/>
</mask>
<g mask="url(#mask0_39_5)">
<path d="M18.7815 0.869818C26.5888 2.80211 32.6617 5.71878 38.193 10.1198C48.9222 18.7292 55.042 30.0573 57.5992 46.0886C58.8336 53.8542 58.1461 72.9011 56.594 73.4479C56.2763 73.5938 55.6826 72.2084 55.0419 70.0365C54.4951 68.0573 53.6722 65.3334 53.2138 64C52.7138 62.6615 52.3492 61.375 52.3492 61.1302C52.3492 60.8334 51.1149 57.9115 49.6513 54.6459C46.7294 48.1146 43.3961 42.2813 40.1097 37.974C35.6305 32.0886 27.8232 24.9636 26.1357 25.2136C24.2138 25.5104 25.0836 27.1875 28.693 30.2084C33.443 34.1146 39.3753 40.9427 42.4378 45.9896C46.9117 53.4115 52.7138 68.1563 53.9951 75.3282L54.3128 77.2084L51.844 76.9115C39.2867 75.5261 24.5784 65.8802 15.9482 53.3125C11.0159 46.0886 6.6774 35.849 3.93782 24.8646C1.4274 15.0209 -0.129882 5.86461 0.0107418 2.15628C0.0576165 0.869818 0.239908 0.671901 1.65136 0.473985C2.52115 0.375026 3.2972 0.229193 3.39095 0.130235C3.75553 -0.265597 16.7242 0.328151 18.7815 0.869818Z" fill="white"/>
</g>
<path d="M100.896 21.9115C100.761 25.6199 100.578 28.7865 100.484 28.9376C100.396 29.0834 100.167 30.6199 100.026 32.3022C99.4374 38.6824 97.1978 46.9428 94.4999 52.7345C91.1666 59.8074 83.677 67.9688 76.2343 72.573C71.4374 75.4897 66.828 77.6199 66.8697 76.8282C66.8697 76.7761 67.1926 75.4897 67.6041 74.0053C67.9686 72.5209 68.5624 70.1459 68.927 68.8126C71.0259 60.1563 77.5103 46.3022 81.7134 41.3542C83.177 39.672 83.6353 37.4949 82.6718 37.099C81.578 36.6563 80.9374 37.3959 77.1457 43.6303C72.2134 51.6459 67.052 64.1615 66.1405 70.3959C65.8228 72.8178 64.7707 73.2657 64.3124 71.2345C64.1301 70.4949 64.1301 66.3386 64.2707 61.9376C64.5416 54.1199 64.953 51.448 67.0989 43.8282C68.1978 39.922 72.1249 31.9532 74.5884 28.5886C79.2499 22.3542 88.3801 16.8178 95.6457 15.8282C96.7395 15.6772 97.6978 15.5313 97.7916 15.4792C97.8384 15.4324 98.6145 15.3334 99.5259 15.2345L101.172 15.1355L100.896 21.9115Z" fill="white"/>
<path d="M4.75553 96.9688C4.01595 96.9688 3.34928 96.8802 2.76074 96.7031C2.16699 96.5156 1.60449 96.1875 1.06282 95.724C0.927408 95.6094 0.818033 95.4792 0.745117 95.3281C0.6722 95.1823 0.635742 95.0365 0.635742 94.8854C0.635742 94.6458 0.719076 94.4375 0.89095 94.2552C1.06803 94.0677 1.29199 93.974 1.5524 93.974C1.75553 93.974 1.93261 94.0365 2.09407 94.1615C2.49511 94.4896 2.89095 94.7344 3.28157 94.901C3.68261 95.0729 4.1774 95.1563 4.75553 95.1563C5.14616 95.1563 5.50553 95.099 5.83365 94.9844C6.16178 94.8542 6.4274 94.6927 6.62532 94.4948C6.82845 94.2813 6.9274 94.0469 6.9274 93.7813C6.9274 93.4688 6.83366 93.1979 6.64095 92.9792C6.45345 92.7552 6.16178 92.5729 5.77115 92.4271C5.38053 92.2656 4.88053 92.1458 4.28157 92.0625C3.70866 91.9792 3.20866 91.8542 2.77636 91.6823C2.34407 91.5052 1.97949 91.2813 1.68261 91.0208C1.39616 90.7448 1.1774 90.4323 1.03157 90.0729C0.885742 89.7031 0.807617 89.2969 0.807617 88.8438C0.807617 88.1563 0.9847 87.5729 1.33365 87.0885C1.69303 86.6042 2.1722 86.2396 2.77636 85.9844C3.37532 85.7344 4.04199 85.6094 4.77115 85.6094C5.45865 85.6094 6.09407 85.7135 6.6722 85.9219C7.26595 86.125 7.74511 86.3802 8.1149 86.6979C8.4222 86.9375 8.57845 87.2188 8.57845 87.5313C8.57845 87.7656 8.4847 87.974 8.30761 88.1615C8.12532 88.3542 7.91699 88.4479 7.6722 88.4479C7.51595 88.4479 7.37011 88.401 7.24511 88.3073C7.07324 88.1563 6.84928 88.0208 6.56282 87.8958C6.27636 87.7604 5.97428 87.6458 5.66178 87.5625C5.34407 87.4688 5.0472 87.4219 4.77115 87.4219C4.31803 87.4219 3.93261 87.4792 3.6149 87.5938C3.30761 87.7135 3.07845 87.8698 2.91699 88.0677C2.76074 88.2708 2.6774 88.5 2.6774 88.7656C2.6774 89.0781 2.77116 89.3438 2.94824 89.5521C3.14095 89.7552 3.40657 89.9167 3.75553 90.0417C4.10449 90.1563 4.52116 90.2656 5.01074 90.3594C5.64616 90.474 6.19824 90.6094 6.6722 90.7656C7.16178 90.9271 7.56282 91.1302 7.88053 91.3854C8.19824 91.625 8.43261 91.9375 8.59407 92.3125C8.75032 92.6823 8.82845 93.1354 8.82845 93.6719C8.82845 94.3542 8.64095 94.9479 8.26074 95.4375C7.88053 95.9323 7.37532 96.3125 6.75553 96.5781C6.14095 96.8385 5.47428 96.9688 4.75553 96.9688ZM11.6617 85.7656C11.9169 85.7656 12.1357 85.8594 12.3284 86.0469C12.5263 86.2292 12.6305 86.4531 12.6305 86.7292V95.849C12.6305 96.125 12.5263 96.3542 12.3284 96.5469C12.1253 96.724 11.8961 96.8125 11.6305 96.8125C11.3336 96.8125 11.094 96.724 10.9169 96.5469C10.7347 96.3542 10.6461 96.125 10.6461 95.849V86.7292C10.6461 86.4531 10.7399 86.2292 10.9326 86.0469C11.1253 85.8594 11.3649 85.7656 11.6617 85.7656ZM18.6826 85.7656C18.9794 85.7656 19.219 85.8594 19.3961 86.0469C19.5784 86.2292 19.6669 86.4531 19.6669 86.7292V95.849C19.6669 96.125 19.5732 96.3542 19.3805 96.5469C19.2034 96.724 18.9586 96.8125 18.6513 96.8125C18.3961 96.8125 18.1722 96.724 17.969 96.5469C17.7815 96.3542 17.6826 96.125 17.6826 95.849V86.7292C17.6826 86.4531 17.7867 86.2292 17.9847 86.0469C18.1878 85.8594 18.4169 85.7656 18.6826 85.7656ZM11.6149 90.3594H18.6826V92.1719H11.6149V90.3594ZM26.1149 88.2448L22.6878 96.2604C22.6149 96.4583 22.5003 96.6198 22.3388 96.7344C22.193 96.8385 22.0315 96.8906 21.8492 96.8906C21.5628 96.8906 21.3544 96.8125 21.2138 96.6563C21.0784 96.5 21.0107 96.3021 21.0107 96.0729C21.0107 95.9792 21.0263 95.875 21.0576 95.7708L25.0055 86.3333C25.0888 86.125 25.2138 85.9583 25.3857 85.8438C25.5628 85.7292 25.7555 85.6823 25.9534 85.7031C26.1461 85.7031 26.318 85.7604 26.4794 85.875C26.6461 85.9792 26.7659 86.1354 26.844 86.3333L30.7399 95.5833C30.7919 95.7188 30.8232 95.8438 30.8232 95.9583C30.8232 96.2448 30.7242 96.4688 30.5367 96.6406C30.3544 96.8073 30.1565 96.8906 29.9326 96.8906C29.7451 96.8906 29.568 96.8333 29.4117 96.7188C29.2607 96.6042 29.1461 96.4427 29.0628 96.2448L25.6513 88.3385L26.1149 88.2448ZM23.1826 94.3333L24.0524 92.5208H28.3336L28.6357 94.3333H23.1826ZM33.1617 85.75C33.3076 85.75 33.4638 85.7917 33.6201 85.875C33.7919 85.9479 33.9169 86.0469 34.0003 86.1771L37.8544 92.0781L37.0628 92.0469L41.0055 86.1771C41.2086 85.8906 41.469 85.75 41.7815 85.75C42.0367 85.75 42.2659 85.8385 42.4638 86.0156C42.6669 86.1979 42.7659 86.4271 42.7659 86.7135V95.849C42.7659 96.125 42.6774 96.3542 42.4951 96.5469C42.318 96.724 42.0784 96.8125 41.7815 96.8125C41.4899 96.8125 41.2451 96.724 41.0576 96.5469C40.8753 96.3542 40.7867 96.125 40.7867 95.849V88.4167L41.4013 88.5573L38.1722 93.4688C38.0732 93.5833 37.9534 93.6823 37.8076 93.7656C37.667 93.849 37.5263 93.8854 37.3753 93.875C37.2399 93.8854 37.0992 93.849 36.9482 93.7656C36.8128 93.6823 36.6982 93.5833 36.5992 93.4688L33.5732 88.7031L33.9847 87.8646V95.849C33.9847 96.125 33.9013 96.3542 33.7347 96.5469C33.5628 96.724 33.3388 96.8125 33.068 96.8125C32.8024 96.8125 32.5836 96.724 32.4169 96.5469C32.2451 96.3542 32.1617 96.125 32.1617 95.849V86.7135C32.1617 86.4479 32.2555 86.224 32.4482 86.0313C32.6513 85.8438 32.8857 85.75 33.1617 85.75ZM50.1097 85.7656C51.1253 85.7656 51.8805 86 52.3753 86.474C52.8753 86.9479 53.1201 87.6458 53.1201 88.5729C53.1201 89.0677 53.0003 89.5052 52.7555 89.8854C52.5159 90.25 52.1565 90.5417 51.6826 90.75C51.2034 90.9531 50.6201 91.0521 49.9222 91.0521L49.9847 90.3438C50.3128 90.3438 50.6878 90.3906 51.1097 90.4844C51.5315 90.5677 51.9378 90.724 52.3284 90.9583C52.7294 91.1771 53.0576 91.4948 53.3128 91.9063C53.5784 92.3021 53.7086 92.8177 53.7086 93.4531C53.7086 94.1458 53.594 94.7135 53.3597 95.1563C53.1357 95.599 52.844 95.9375 52.4742 96.1823C52.1045 96.4219 51.7086 96.5938 51.2815 96.6875C50.8597 96.7708 50.4534 96.8125 50.0628 96.8125H46.1149C45.844 96.8125 45.6097 96.724 45.4169 96.5469C45.2399 96.3542 45.1513 96.125 45.1513 95.849V86.7292C45.1513 86.4531 45.2399 86.2292 45.4169 86.0469C45.6097 85.8594 45.844 85.7656 46.1149 85.7656H50.1097ZM49.8232 87.625H47.0055L47.2086 87.375V90.2292L47.0211 90.0885H49.8753C50.1774 90.0885 50.4534 89.9896 50.6982 89.7917C50.943 89.5885 51.0628 89.3021 51.0628 88.9219C51.0628 88.4688 50.9482 88.1406 50.7138 87.9427C50.4899 87.7344 50.193 87.625 49.8232 87.625ZM49.9534 91.9531H47.068L47.2086 91.8281V95.1563L47.0524 95H50.0628C50.5472 95 50.9326 94.8698 51.219 94.6198C51.5055 94.3542 51.6461 93.9688 51.6461 93.4531C51.6461 92.9792 51.5524 92.6354 51.3649 92.4271C51.1722 92.2135 50.9482 92.0833 50.6826 92.0313C50.417 91.9792 50.1722 91.9531 49.9534 91.9531ZM59.6097 88.2448L56.1878 96.2604C56.1097 96.4583 55.9951 96.6198 55.8388 96.7344C55.6878 96.8385 55.5263 96.8906 55.344 96.8906C55.0628 96.8906 54.8492 96.8125 54.7138 96.6563C54.5732 96.5 54.5055 96.3021 54.5055 96.0729C54.5055 95.9792 54.5211 95.875 54.5524 95.7708L58.5003 86.3333C58.5836 86.125 58.7138 85.9583 58.8805 85.8438C59.0576 85.7292 59.2503 85.6823 59.4534 85.7031C59.6409 85.7031 59.818 85.7604 59.9742 85.875C60.1409 85.9792 60.2659 86.1354 60.3388 86.3333L64.2399 95.5833C64.292 95.7188 64.318 95.8438 64.318 95.9583C64.318 96.2448 64.2242 96.4688 64.0315 96.6406C63.8545 96.8073 63.6513 96.8906 63.4274 96.8906C63.2399 96.8906 63.0628 96.8333 62.9065 96.7188C62.7607 96.6042 62.6409 96.4427 62.5576 96.2448L59.1513 88.3385L59.6097 88.2448ZM56.6774 94.3333L57.5472 92.5208H61.8284L62.1305 94.3333H56.6774ZM71.2451 96.8125C70.9482 96.8125 70.6826 96.724 70.4482 96.5469C70.219 96.3542 70.0992 96.125 70.0992 95.849V86.7292C70.0992 86.4531 70.193 86.2292 70.3701 86.0469C70.5628 85.8594 70.792 85.7656 71.068 85.7656H75.6357C76.1826 85.7656 76.693 85.9115 77.1722 86.2083C77.6565 86.4896 78.0472 86.8906 78.344 87.4063C78.6409 87.9115 78.7867 88.4948 78.7867 89.1563C78.7867 89.5573 78.7034 89.9479 78.5315 90.3281C78.3753 90.7031 78.1513 91.0469 77.8701 91.3542C77.594 91.6563 77.2815 91.8958 76.9326 92.0625L76.9482 91.6979C77.2451 91.8594 77.4899 92.0469 77.6774 92.2656C77.8805 92.4792 78.0315 92.7083 78.1357 92.9635C78.2555 93.2031 78.3232 93.4688 78.344 93.75C78.3857 94.0156 78.4117 94.2448 78.4222 94.4479C78.443 94.6458 78.4742 94.8125 78.5159 94.9531C78.5732 95.0885 78.667 95.1927 78.8024 95.2656C79.0367 95.401 79.1774 95.6042 79.2295 95.8646C79.2972 96.1198 79.2347 96.3438 79.0576 96.5469C78.943 96.6823 78.792 96.7708 78.6149 96.8125C78.4326 96.8438 78.2555 96.8438 78.0732 96.8125C77.8961 96.7708 77.7451 96.7188 77.6305 96.6563C77.4534 96.5521 77.2711 96.3958 77.094 96.1979C76.9117 95.9896 76.7659 95.7083 76.6461 95.3594C76.542 95.0156 76.4899 94.5677 76.4899 94.0208C76.4899 93.8385 76.4586 93.6771 76.3961 93.5313C76.3284 93.3698 76.2399 93.2396 76.1253 93.1354C76.0107 93.0208 75.8597 92.9375 75.6826 92.8854C75.5003 92.8177 75.292 92.7865 75.0472 92.7865H71.844L72.0836 92.4271V95.849C72.0836 96.125 72.0107 96.3542 71.8597 96.5469C71.7138 96.724 71.5055 96.8125 71.2451 96.8125ZM71.8597 91.1615H75.5524C75.7451 91.1615 75.9274 91.0781 76.1097 90.9115C76.2867 90.7292 76.4378 90.4948 76.5524 90.1979C76.667 89.8958 76.7295 89.5625 76.7295 89.2031C76.7295 88.7448 76.5992 88.3594 76.3492 88.0521C76.1045 87.7396 75.8388 87.5781 75.5524 87.5781H71.8909L72.0836 87.0729V91.5417L71.8597 91.1615ZM81.9482 85.7656H87.2607C87.5367 85.7656 87.7607 85.8542 87.943 86.0313C88.1305 86.2031 88.2295 86.4219 88.2295 86.6979C88.2295 86.9583 88.1305 87.1771 87.943 87.3438C87.7607 87.5 87.5367 87.5781 87.2607 87.5781H82.8232L82.9638 87.3125V90.3906L82.8388 90.2656H86.5472C86.8232 90.2656 87.0472 90.3542 87.2295 90.5313C87.417 90.6979 87.5159 90.9219 87.5159 91.1927C87.5159 91.4583 87.417 91.6719 87.2295 91.8438C87.0472 92 86.8232 92.0781 86.5472 92.0781H82.8857L82.9638 91.9531V95.1406L82.8388 95H87.2607C87.5367 95 87.7607 95.0938 87.943 95.2813C88.1305 95.4583 88.2295 95.6719 88.2295 95.9115C88.2295 96.1771 88.1305 96.3906 87.943 96.5625C87.7607 96.7292 87.5367 96.8125 87.2607 96.8125H81.9482C81.6774 96.8125 81.443 96.724 81.2503 96.5469C81.0732 96.3542 80.9847 96.125 80.9847 95.849V86.7292C80.9847 86.4531 81.0732 86.2292 81.2503 86.0469C81.443 85.8594 81.6774 85.7656 81.9482 85.7656ZM97.818 86.3021C98.094 86.4375 98.2555 86.6563 98.2972 86.9479C98.3492 87.2448 98.2763 87.5104 98.0732 87.7552C97.9378 87.9427 97.7555 88.0469 97.5367 88.0677C97.3232 88.0885 97.1097 88.0469 96.8857 87.9427C96.6305 87.8281 96.3649 87.7396 96.0784 87.6771C95.8024 87.6094 95.5107 87.5781 95.2034 87.5781C94.6357 87.5781 94.1201 87.6719 93.667 87.849C93.2242 88.026 92.844 88.2865 92.5263 88.6198C92.2086 88.9479 91.9638 89.3385 91.7972 89.7917C91.6409 90.2396 91.5576 90.7396 91.5576 91.2865C91.5576 91.9323 91.6513 92.4896 91.8284 92.9635C92.0211 93.4375 92.2763 93.8281 92.6045 94.1458C92.9326 94.4635 93.318 94.6979 93.7607 94.8542C94.2086 95.0052 94.6878 95.0781 95.2034 95.0781C95.4899 95.0781 95.7763 95.0521 96.0628 95C96.344 94.9479 96.6201 94.849 96.8857 94.7135C97.1097 94.6094 97.3232 94.5729 97.5367 94.6042C97.7555 94.6354 97.943 94.7448 98.0888 94.9375C98.3024 95.1979 98.3753 95.474 98.3128 95.7552C98.2607 96.0313 98.0992 96.2292 97.8388 96.3542C97.5628 96.4896 97.2763 96.6094 96.9795 96.7031C96.693 96.7865 96.4065 96.849 96.1097 96.8906C95.8128 96.9427 95.5107 96.9688 95.2034 96.9688C94.443 96.9688 93.719 96.849 93.0315 96.6094C92.3597 96.3646 91.7503 96.0104 91.2086 95.5365C90.6826 95.0625 90.2659 94.474 89.9586 93.7656C89.6513 93.0521 89.5003 92.224 89.5003 91.2865C89.5003 90.4792 89.6357 89.7292 89.9117 89.0469C90.1982 88.3646 90.594 87.776 91.0992 87.2813C91.6201 86.776 92.2242 86.3854 92.9222 86.1146C93.6201 85.8281 94.3805 85.6875 95.2034 85.6875C95.6722 85.6875 96.1253 85.7396 96.568 85.8438C97.0107 85.9479 97.4274 86.1042 97.818 86.3021ZM110.198 91.2865C110.198 92.0781 110.068 92.8125 109.802 93.5C109.537 94.1823 109.162 94.7865 108.677 95.3125C108.203 95.8281 107.63 96.2344 106.964 96.5313C106.313 96.8229 105.594 96.9688 104.807 96.9688C104.026 96.9688 103.307 96.8229 102.656 96.5313C102 96.2344 101.427 95.8281 100.943 95.3125C100.469 94.7865 100.099 94.1823 99.8336 93.5C99.568 92.8125 99.4378 92.0781 99.4378 91.2865C99.4378 90.5 99.568 89.7656 99.8336 89.0781C100.099 88.3958 100.469 87.7969 100.943 87.2813C101.427 86.7552 102 86.3438 102.656 86.0469C103.307 85.7552 104.026 85.6094 104.807 85.6094C105.594 85.6094 106.313 85.7552 106.964 86.0469C107.63 86.3438 108.203 86.7552 108.677 87.2813C109.162 87.7969 109.537 88.3958 109.802 89.0781C110.068 89.7656 110.198 90.5 110.198 91.2865ZM108.141 91.2865C108.141 90.5833 107.995 89.9479 107.708 89.3802C107.427 88.8021 107.037 88.3438 106.537 88.0052C106.042 87.6719 105.464 87.5 104.807 87.5C104.156 87.5 103.578 87.6719 103.083 88.0052C102.583 88.3438 102.193 88.7969 101.912 89.3646C101.636 89.9323 101.495 90.5729 101.495 91.2865C101.495 91.9948 101.636 92.6354 101.912 93.2135C102.193 93.7813 102.583 94.2344 103.083 94.5729C103.578 94.9063 104.156 95.0781 104.807 95.0781C105.464 95.0781 106.042 94.9063 106.537 94.5729C107.037 94.2344 107.427 93.7813 107.708 93.2135C107.995 92.6354 108.141 91.9948 108.141 91.2865ZM113.162 96.8125C112.865 96.8125 112.599 96.724 112.365 96.5469C112.136 96.3542 112.016 96.125 112.016 95.849V86.7292C112.016 86.4531 112.109 86.2292 112.287 86.0469C112.479 85.8594 112.708 85.7656 112.984 85.7656H117.552C118.099 85.7656 118.609 85.9115 119.089 86.2083C119.573 86.4896 119.964 86.8906 120.261 87.4063C120.557 87.9115 120.703 88.4948 120.703 89.1563C120.703 89.5573 120.62 89.9479 120.448 90.3281C120.292 90.7031 120.068 91.0469 119.787 91.3542C119.511 91.6563 119.198 91.8958 118.849 92.0625L118.865 91.6979C119.162 91.8594 119.406 92.0469 119.594 92.2656C119.797 92.4792 119.948 92.7083 120.052 92.9635C120.172 93.2031 120.24 93.4688 120.261 93.75C120.302 94.0156 120.328 94.2448 120.339 94.4479C120.359 94.6458 120.391 94.8125 120.432 94.9531C120.49 95.0885 120.583 95.1927 120.719 95.2656C120.953 95.401 121.094 95.6042 121.146 95.8646C121.214 96.1198 121.151 96.3438 120.974 96.5469C120.859 96.6823 120.708 96.7708 120.531 96.8125C120.349 96.8438 120.172 96.8438 119.99 96.8125C119.813 96.7708 119.662 96.7188 119.547 96.6563C119.37 96.5521 119.188 96.3958 119.011 96.1979C118.828 95.9896 118.682 95.7083 118.563 95.3594C118.458 95.0156 118.406 94.5677 118.406 94.0208C118.406 93.8385 118.375 93.6771 118.313 93.5313C118.245 93.3698 118.156 93.2396 118.042 93.1354C117.927 93.0208 117.776 92.9375 117.599 92.8854C117.417 92.8177 117.208 92.7865 116.964 92.7865H113.761L114 92.4271V95.849C114 96.125 113.927 96.3542 113.776 96.5469C113.63 96.724 113.422 96.8125 113.162 96.8125ZM113.776 91.1615H117.469C117.662 91.1615 117.844 91.0781 118.026 90.9115C118.203 90.7292 118.354 90.4948 118.469 90.1979C118.583 89.8958 118.646 89.5625 118.646 89.2031C118.646 88.7448 118.516 88.3594 118.266 88.0521C118.021 87.7396 117.755 87.5781 117.469 87.5781H113.807L114 87.0729V91.5417L113.776 91.1615ZM127.656 85.7656C128.417 85.7656 129.094 85.9062 129.682 86.1927C130.276 86.474 130.771 86.875 131.172 87.3906C131.583 87.8958 131.891 88.4844 132.094 89.1563C132.302 89.8229 132.412 90.5313 132.412 91.2865C132.412 92.3073 132.224 93.2396 131.854 94.0833C131.484 94.9115 130.948 95.5781 130.24 96.0729C129.542 96.5677 128.677 96.8125 127.656 96.8125H123.865C123.594 96.8125 123.359 96.724 123.167 96.5469C122.99 96.3542 122.901 96.125 122.901 95.849V86.7292C122.901 86.4531 122.99 86.2292 123.167 86.0469C123.359 85.8594 123.594 85.7656 123.865 85.7656H127.656ZM127.495 95C128.162 95 128.708 94.8281 129.13 94.4948C129.552 94.1458 129.859 93.6927 130.047 93.1354C130.25 92.5677 130.349 91.9531 130.349 91.2865C130.349 90.7969 130.292 90.3281 130.177 89.8854C130.068 89.4323 129.901 89.0365 129.667 88.7031C129.432 88.3542 129.141 88.0781 128.781 87.8802C128.422 87.6823 127.995 87.5781 127.495 87.5781H124.724L124.88 87.4375V95.1719L124.787 95H127.495ZM137.797 96.9688C137.057 96.9688 136.391 96.8802 135.802 96.7031C135.208 96.5156 134.641 96.1875 134.104 95.724C133.964 95.6094 133.859 95.4792 133.787 95.3281C133.714 95.1823 133.677 95.0365 133.677 94.8854C133.677 94.6458 133.761 94.4375 133.927 94.2552C134.109 94.0677 134.333 93.974 134.594 93.974C134.797 93.974 134.974 94.0365 135.136 94.1615C135.537 94.4896 135.932 94.7344 136.323 94.901C136.724 95.0729 137.214 95.1563 137.797 95.1563C138.188 95.1563 138.547 95.099 138.875 94.9844C139.203 94.8542 139.469 94.6927 139.667 94.4948C139.87 94.2813 139.969 94.0469 139.969 93.7813C139.969 93.4688 139.875 93.1979 139.682 92.9792C139.495 92.7552 139.203 92.5729 138.813 92.4271C138.422 92.2656 137.922 92.1458 137.323 92.0625C136.75 91.9792 136.25 91.8542 135.818 91.6823C135.38 91.5052 135.016 91.2813 134.719 91.0208C134.438 90.7448 134.219 90.4323 134.073 90.0729C133.922 89.7031 133.849 89.2969 133.849 88.8438C133.849 88.1563 134.026 87.5729 134.375 87.0885C134.734 86.6042 135.214 86.2396 135.818 85.9844C136.417 85.7344 137.083 85.6094 137.813 85.6094C138.5 85.6094 139.136 85.7135 139.714 85.9219C140.307 86.125 140.787 86.3802 141.156 86.6979C141.464 86.9375 141.615 87.2188 141.615 87.5313C141.615 87.7656 141.526 87.974 141.349 88.1615C141.167 88.3542 140.958 88.4479 140.714 88.4479C140.557 88.4479 140.412 88.401 140.287 88.3073C140.115 88.1563 139.891 88.0208 139.604 87.8958C139.318 87.7604 139.016 87.6458 138.698 87.5625C138.386 87.4688 138.089 87.4219 137.813 87.4219C137.359 87.4219 136.974 87.4792 136.656 87.5938C136.349 87.7135 136.115 87.8698 135.958 88.0677C135.802 88.2708 135.719 88.5 135.719 88.7656C135.719 89.0781 135.807 89.3438 135.99 89.5521C136.182 89.7552 136.448 89.9167 136.797 90.0417C137.146 90.1563 137.563 90.2656 138.052 90.3594C138.682 90.474 139.24 90.6094 139.714 90.7656C140.203 90.9271 140.604 91.1302 140.917 91.3854C141.234 91.625 141.474 91.9375 141.63 92.3125C141.792 92.6823 141.87 93.1354 141.87 93.6719C141.87 94.3542 141.682 94.9479 141.297 95.4375C140.917 95.9323 140.417 96.3125 139.792 96.5781C139.182 96.8385 138.516 96.9688 137.797 96.9688Z" fill="white"/>
</g>
<defs>
<clipPath id="clip0_39_5">
<rect width="142" height="97" fill="white"/>
</clipPath>
</defs>
</svg>
