<svg width="142" height="97" viewBox="0 0 142 97" fill="none" xmlns="http://www.w3.org/2000/svg">
<mask id="mask0_77_336" style="mask-type:luminance" maskUnits="userSpaceOnUse" x="0" y="0" width="60" height="79">
<path d="M0 0H59.0885V78.2031H0V0Z" fill="white"/>
</mask>
<g mask="url(#mask0_77_336)">
<path d="M18.7813 0.869818C26.5886 2.80211 32.6615 5.71878 38.1928 10.1198C48.922 18.7292 55.0418 30.0573 57.599 46.0886C58.8334 53.8542 58.1459 72.9011 56.5938 73.4479C56.2761 73.5938 55.6824 72.2084 55.0417 70.0365C54.4949 68.0573 53.672 65.3334 53.2136 64C52.7136 62.6615 52.349 61.375 52.349 61.1302C52.349 60.8334 51.1147 57.9115 49.6511 54.6459C46.7292 48.1146 43.3959 42.2813 40.1095 37.974C35.6303 32.0886 27.823 24.9636 26.1355 25.2136C24.2136 25.5104 25.0834 27.1875 28.6928 30.2084C33.4428 34.1146 39.3751 40.9427 42.4376 45.9896C46.9115 53.4115 52.7136 68.1563 53.9949 75.3282L54.3126 77.2084L51.8438 76.9115C39.2865 75.5261 24.5782 65.8802 15.948 53.3125C11.0157 46.0886 6.67716 35.849 3.93758 24.8646C1.42716 15.0209 -0.130126 5.86461 0.0104976 2.15628C0.0573723 0.869818 0.239664 0.671901 1.65112 0.473985C2.52091 0.375026 3.29696 0.229193 3.39071 0.130235C3.75529 -0.265597 16.724 0.328151 18.7813 0.869818Z" fill="#15C233"/>
</g>
<path d="M100.896 21.9115C100.761 25.6199 100.578 28.7865 100.484 28.9376C100.396 29.0834 100.167 30.6199 100.026 32.3022C99.4376 38.6824 97.198 46.9428 94.5001 52.7345C91.1668 59.8074 83.6772 67.9688 76.2345 72.573C71.4376 75.4897 66.8282 77.6199 66.8699 76.8282C66.8699 76.7761 67.1928 75.4897 67.6043 74.0053C67.9688 72.5209 68.5626 70.1459 68.9272 68.8126C71.0261 60.1563 77.5105 46.3022 81.7136 41.3542C83.1772 39.672 83.6355 37.4949 82.672 37.099C81.5782 36.6563 80.9376 37.3959 77.1459 43.6303C72.2136 51.6459 67.0522 64.1615 66.1407 70.3959C65.823 72.8178 64.7709 73.2657 64.3126 71.2345C64.1303 70.4949 64.1303 66.3386 64.2709 61.9376C64.5418 54.1199 64.9532 51.448 67.0991 43.8282C68.198 39.922 72.1251 31.9532 74.5886 28.5886C79.2501 22.3542 88.3803 16.8178 95.6459 15.8282C96.7397 15.6772 97.698 15.5313 97.7918 15.4792C97.8386 15.4324 98.6147 15.3334 99.5261 15.2345L101.172 15.1355L100.896 21.9115Z" fill="#15C233"/>
<path d="M4.75529 96.9688C4.01571 96.9688 3.34904 96.8802 2.7605 96.7031C2.16675 96.5156 1.60425 96.1875 1.06258 95.724C0.927164 95.6094 0.817789 95.4792 0.744873 95.3281C0.671956 95.1823 0.635498 95.0365 0.635498 94.8854C0.635498 94.6458 0.718832 94.4375 0.890706 94.2552C1.06779 94.0677 1.29175 93.974 1.55216 93.974C1.75529 93.974 1.93237 94.0365 2.09383 94.1615C2.49487 94.4896 2.89071 94.7344 3.28133 94.901C3.68237 95.0729 4.17716 95.1563 4.75529 95.1563C5.14592 95.1563 5.50529 95.099 5.83341 94.9844C6.16154 94.8542 6.42716 94.6927 6.62508 94.4948C6.82821 94.2813 6.92716 94.0469 6.92716 93.7813C6.92716 93.4688 6.83342 93.1979 6.64071 92.9792C6.45321 92.7552 6.16154 92.5729 5.77091 92.4271C5.38029 92.2656 4.88029 92.1458 4.28133 92.0625C3.70842 91.9792 3.20842 91.8542 2.77612 91.6823C2.34383 91.5052 1.97925 91.2813 1.68237 91.0208C1.39592 90.7448 1.17716 90.4323 1.03133 90.0729C0.885498 89.7031 0.807373 89.2969 0.807373 88.8438C0.807373 88.1563 0.984456 87.5729 1.33341 87.0885C1.69279 86.6042 2.17196 86.2396 2.77612 85.9844C3.37508 85.7344 4.04175 85.6094 4.77091 85.6094C5.45841 85.6094 6.09383 85.7135 6.67196 85.9219C7.26571 86.125 7.74487 86.3802 8.11466 86.6979C8.42196 86.9375 8.57821 87.2188 8.57821 87.5313C8.57821 87.7656 8.48446 87.974 8.30737 88.1615C8.12508 88.3542 7.91675 88.4479 7.67196 88.4479C7.51571 88.4479 7.36987 88.401 7.24487 88.3073C7.073 88.1563 6.84904 88.0208 6.56258 87.8958C6.27612 87.7604 5.97404 87.6458 5.66154 87.5625C5.34383 87.4688 5.04696 87.4219 4.77091 87.4219C4.31779 87.4219 3.93237 87.4792 3.61466 87.5938C3.30737 87.7135 3.07821 87.8698 2.91675 88.0677C2.7605 88.2708 2.67716 88.5 2.67716 88.7656C2.67716 89.0781 2.77092 89.3438 2.948 89.5521C3.14071 89.7552 3.40633 89.9167 3.75529 90.0417C4.10425 90.1563 4.52092 90.2656 5.0105 90.3594C5.64592 90.474 6.198 90.6094 6.67196 90.7656C7.16154 90.9271 7.56258 91.1302 7.88029 91.3854C8.198 91.625 8.43237 91.9375 8.59383 92.3125C8.75008 92.6823 8.82821 93.1354 8.82821 93.6719C8.82821 94.3542 8.64071 94.9479 8.2605 95.4375C7.88029 95.9323 7.37508 96.3125 6.75529 96.5781C6.14071 96.8385 5.47404 96.9688 4.75529 96.9688ZM11.6615 85.7656C11.9167 85.7656 12.1355 85.8594 12.3282 86.0469C12.5261 86.2292 12.6303 86.4531 12.6303 86.7292V95.849C12.6303 96.125 12.5261 96.3542 12.3282 96.5469C12.1251 96.724 11.8959 96.8125 11.6303 96.8125C11.3334 96.8125 11.0938 96.724 10.9167 96.5469C10.7345 96.3542 10.6459 96.125 10.6459 95.849V86.7292C10.6459 86.4531 10.7397 86.2292 10.9324 86.0469C11.1251 85.8594 11.3647 85.7656 11.6615 85.7656ZM18.6824 85.7656C18.9792 85.7656 19.2188 85.8594 19.3959 86.0469C19.5782 86.2292 19.6667 86.4531 19.6667 86.7292V95.849C19.6667 96.125 19.573 96.3542 19.3803 96.5469C19.2032 96.724 18.9584 96.8125 18.6511 96.8125C18.3959 96.8125 18.172 96.724 17.9688 96.5469C17.7813 96.3542 17.6824 96.125 17.6824 95.849V86.7292C17.6824 86.4531 17.7865 86.2292 17.9845 86.0469C18.1876 85.8594 18.4167 85.7656 18.6824 85.7656ZM11.6147 90.3594H18.6824V92.1719H11.6147V90.3594ZM26.1147 88.2448L22.6876 96.2604C22.6147 96.4583 22.5001 96.6198 22.3386 96.7344C22.1928 96.8385 22.0313 96.8906 21.849 96.8906C21.5626 96.8906 21.3542 96.8125 21.2136 96.6563C21.0782 96.5 21.0105 96.3021 21.0105 96.0729C21.0105 95.9792 21.0261 95.875 21.0574 95.7708L25.0053 86.3333C25.0886 86.125 25.2136 85.9583 25.3855 85.8438C25.5626 85.7292 25.7553 85.6823 25.9532 85.7031C26.1459 85.7031 26.3178 85.7604 26.4792 85.875C26.6459 85.9792 26.7657 86.1354 26.8438 86.3333L30.7397 95.5833C30.7917 95.7188 30.823 95.8438 30.823 95.9583C30.823 96.2448 30.724 96.4688 30.5365 96.6406C30.3542 96.8073 30.1563 96.8906 29.9324 96.8906C29.7449 96.8906 29.5678 96.8333 29.4115 96.7188C29.2605 96.6042 29.1459 96.4427 29.0626 96.2448L25.6511 88.3385L26.1147 88.2448ZM23.1824 94.3333L24.0522 92.5208H28.3334L28.6355 94.3333H23.1824ZM33.1615 85.75C33.3074 85.75 33.4636 85.7917 33.6199 85.875C33.7917 85.9479 33.9167 86.0469 34.0001 86.1771L37.8542 92.0781L37.0626 92.0469L41.0053 86.1771C41.2084 85.8906 41.4688 85.75 41.7813 85.75C42.0365 85.75 42.2657 85.8385 42.4636 86.0156C42.6667 86.1979 42.7657 86.4271 42.7657 86.7135V95.849C42.7657 96.125 42.6772 96.3542 42.4949 96.5469C42.3178 96.724 42.0782 96.8125 41.7813 96.8125C41.4897 96.8125 41.2449 96.724 41.0574 96.5469C40.8751 96.3542 40.7865 96.125 40.7865 95.849V88.4167L41.4011 88.5573L38.172 93.4688C38.073 93.5833 37.9532 93.6823 37.8074 93.7656C37.6668 93.849 37.5261 93.8854 37.3751 93.875C37.2397 93.8854 37.099 93.849 36.948 93.7656C36.8126 93.6823 36.698 93.5833 36.599 93.4688L33.573 88.7031L33.9845 87.8646V95.849C33.9845 96.125 33.9011 96.3542 33.7345 96.5469C33.5626 96.724 33.3386 96.8125 33.0678 96.8125C32.8022 96.8125 32.5834 96.724 32.4167 96.5469C32.2449 96.3542 32.1615 96.125 32.1615 95.849V86.7135C32.1615 86.4479 32.2553 86.224 32.448 86.0313C32.6511 85.8438 32.8855 85.75 33.1615 85.75ZM50.1095 85.7656C51.1251 85.7656 51.8803 86 52.3751 86.474C52.8751 86.9479 53.1199 87.6458 53.1199 88.5729C53.1199 89.0677 53.0001 89.5052 52.7553 89.8854C52.5157 90.25 52.1563 90.5417 51.6824 90.75C51.2032 90.9531 50.6199 91.0521 49.922 91.0521L49.9845 90.3438C50.3126 90.3438 50.6876 90.3906 51.1095 90.4844C51.5313 90.5677 51.9376 90.724 52.3282 90.9583C52.7292 91.1771 53.0574 91.4948 53.3126 91.9063C53.5782 92.3021 53.7084 92.8177 53.7084 93.4531C53.7084 94.1458 53.5938 94.7135 53.3595 95.1563C53.1355 95.599 52.8438 95.9375 52.474 96.1823C52.1043 96.4219 51.7084 96.5938 51.2813 96.6875C50.8595 96.7708 50.4532 96.8125 50.0626 96.8125H46.1147C45.8438 96.8125 45.6095 96.724 45.4167 96.5469C45.2397 96.3542 45.1511 96.125 45.1511 95.849V86.7292C45.1511 86.4531 45.2397 86.2292 45.4167 86.0469C45.6095 85.8594 45.8438 85.7656 46.1147 85.7656H50.1095ZM49.823 87.625H47.0053L47.2084 87.375V90.2292L47.0209 90.0885H49.8751C50.1772 90.0885 50.4532 89.9896 50.698 89.7917C50.9428 89.5885 51.0626 89.3021 51.0626 88.9219C51.0626 88.4688 50.948 88.1406 50.7136 87.9427C50.4897 87.7344 50.1928 87.625 49.823 87.625ZM49.9532 91.9531H47.0678L47.2084 91.8281V95.1563L47.0522 95H50.0626C50.547 95 50.9324 94.8698 51.2188 94.6198C51.5053 94.3542 51.6459 93.9688 51.6459 93.4531C51.6459 92.9792 51.5522 92.6354 51.3647 92.4271C51.172 92.2135 50.948 92.0833 50.6824 92.0313C50.4168 91.9792 50.172 91.9531 49.9532 91.9531ZM59.6095 88.2448L56.1876 96.2604C56.1095 96.4583 55.9949 96.6198 55.8386 96.7344C55.6876 96.8385 55.5261 96.8906 55.3438 96.8906C55.0626 96.8906 54.849 96.8125 54.7136 96.6563C54.573 96.5 54.5053 96.3021 54.5053 96.0729C54.5053 95.9792 54.5209 95.875 54.5522 95.7708L58.5001 86.3333C58.5834 86.125 58.7136 85.9583 58.8803 85.8438C59.0574 85.7292 59.2501 85.6823 59.4532 85.7031C59.6407 85.7031 59.8178 85.7604 59.974 85.875C60.1407 85.9792 60.2657 86.1354 60.3386 86.3333L64.2397 95.5833C64.2918 95.7188 64.3178 95.8438 64.3178 95.9583C64.3178 96.2448 64.224 96.4688 64.0313 96.6406C63.8543 96.8073 63.6511 96.8906 63.4272 96.8906C63.2397 96.8906 63.0626 96.8333 62.9063 96.7188C62.7605 96.6042 62.6407 96.4427 62.5574 96.2448L59.1511 88.3385L59.6095 88.2448ZM56.6772 94.3333L57.547 92.5208H61.8282L62.1303 94.3333H56.6772ZM71.2449 96.8125C70.948 96.8125 70.6824 96.724 70.448 96.5469C70.2188 96.3542 70.099 96.125 70.099 95.849V86.7292C70.099 86.4531 70.1928 86.2292 70.3699 86.0469C70.5626 85.8594 70.7918 85.7656 71.0678 85.7656H75.6355C76.1824 85.7656 76.6928 85.9115 77.172 86.2083C77.6563 86.4896 78.047 86.8906 78.3438 87.4063C78.6407 87.9115 78.7865 88.4948 78.7865 89.1563C78.7865 89.5573 78.7032 89.9479 78.5313 90.3281C78.3751 90.7031 78.1511 91.0469 77.8699 91.3542C77.5938 91.6563 77.2813 91.8958 76.9324 92.0625L76.948 91.6979C77.2449 91.8594 77.4897 92.0469 77.6772 92.2656C77.8803 92.4792 78.0313 92.7083 78.1355 92.9635C78.2553 93.2031 78.323 93.4688 78.3438 93.75C78.3855 94.0156 78.4115 94.2448 78.422 94.4479C78.4428 94.6458 78.474 94.8125 78.5157 94.9531C78.573 95.0885 78.6668 95.1927 78.8022 95.2656C79.0365 95.401 79.1772 95.6042 79.2293 95.8646C79.297 96.1198 79.2345 96.3438 79.0574 96.5469C78.9428 96.6823 78.7918 96.7708 78.6147 96.8125C78.4324 96.8438 78.2553 96.8438 78.073 96.8125C77.8959 96.7708 77.7449 96.7188 77.6303 96.6563C77.4532 96.5521 77.2709 96.3958 77.0938 96.1979C76.9115 95.9896 76.7657 95.7083 76.6459 95.3594C76.5418 95.0156 76.4897 94.5677 76.4897 94.0208C76.4897 93.8385 76.4584 93.6771 76.3959 93.5313C76.3282 93.3698 76.2397 93.2396 76.1251 93.1354C76.0105 93.0208 75.8595 92.9375 75.6824 92.8854C75.5001 92.8177 75.2918 92.7865 75.047 92.7865H71.8438L72.0834 92.4271V95.849C72.0834 96.125 72.0105 96.3542 71.8595 96.5469C71.7136 96.724 71.5053 96.8125 71.2449 96.8125ZM71.8595 91.1615H75.5522C75.7449 91.1615 75.9272 91.0781 76.1095 90.9115C76.2865 90.7292 76.4376 90.4948 76.5522 90.1979C76.6668 89.8958 76.7293 89.5625 76.7293 89.2031C76.7293 88.7448 76.599 88.3594 76.349 88.0521C76.1043 87.7396 75.8386 87.5781 75.5522 87.5781H71.8907L72.0834 87.0729V91.5417L71.8595 91.1615ZM81.948 85.7656H87.2605C87.5365 85.7656 87.7605 85.8542 87.9428 86.0313C88.1303 86.2031 88.2293 86.4219 88.2293 86.6979C88.2293 86.9583 88.1303 87.1771 87.9428 87.3438C87.7605 87.5 87.5365 87.5781 87.2605 87.5781H82.823L82.9636 87.3125V90.3906L82.8386 90.2656H86.547C86.823 90.2656 87.047 90.3542 87.2293 90.5313C87.4168 90.6979 87.5157 90.9219 87.5157 91.1927C87.5157 91.4583 87.4168 91.6719 87.2293 91.8438C87.047 92 86.823 92.0781 86.547 92.0781H82.8855L82.9636 91.9531V95.1406L82.8386 95H87.2605C87.5365 95 87.7605 95.0938 87.9428 95.2813C88.1303 95.4583 88.2293 95.6719 88.2293 95.9115C88.2293 96.1771 88.1303 96.3906 87.9428 96.5625C87.7605 96.7292 87.5365 96.8125 87.2605 96.8125H81.948C81.6772 96.8125 81.4428 96.724 81.2501 96.5469C81.073 96.3542 80.9845 96.125 80.9845 95.849V86.7292C80.9845 86.4531 81.073 86.2292 81.2501 86.0469C81.4428 85.8594 81.6772 85.7656 81.948 85.7656ZM97.8178 86.3021C98.0938 86.4375 98.2553 86.6563 98.297 86.9479C98.349 87.2448 98.2761 87.5104 98.073 87.7552C97.9376 87.9427 97.7553 88.0469 97.5365 88.0677C97.323 88.0885 97.1095 88.0469 96.8855 87.9427C96.6303 87.8281 96.3647 87.7396 96.0782 87.6771C95.8022 87.6094 95.5105 87.5781 95.2032 87.5781C94.6355 87.5781 94.1199 87.6719 93.6668 87.849C93.224 88.026 92.8438 88.2865 92.5261 88.6198C92.2084 88.9479 91.9636 89.3385 91.797 89.7917C91.6407 90.2396 91.5574 90.7396 91.5574 91.2865C91.5574 91.9323 91.6511 92.4896 91.8282 92.9635C92.0209 93.4375 92.2761 93.8281 92.6043 94.1458C92.9324 94.4635 93.3178 94.6979 93.7605 94.8542C94.2084 95.0052 94.6876 95.0781 95.2032 95.0781C95.4897 95.0781 95.7761 95.0521 96.0626 95C96.3438 94.9479 96.6199 94.849 96.8855 94.7135C97.1095 94.6094 97.323 94.5729 97.5365 94.6042C97.7553 94.6354 97.9428 94.7448 98.0886 94.9375C98.3022 95.1979 98.3751 95.474 98.3126 95.7552C98.2605 96.0313 98.099 96.2292 97.8386 96.3542C97.5626 96.4896 97.2761 96.6094 96.9793 96.7031C96.6928 96.7865 96.4063 96.849 96.1095 96.8906C95.8126 96.9427 95.5105 96.9688 95.2032 96.9688C94.4428 96.9688 93.7188 96.849 93.0313 96.6094C92.3595 96.3646 91.7501 96.0104 91.2084 95.5365C90.6824 95.0625 90.2657 94.474 89.9584 93.7656C89.6511 93.0521 89.5001 92.224 89.5001 91.2865C89.5001 90.4792 89.6355 89.7292 89.9115 89.0469C90.198 88.3646 90.5938 87.776 91.099 87.2813C91.6199 86.776 92.224 86.3854 92.922 86.1146C93.6199 85.8281 94.3803 85.6875 95.2032 85.6875C95.672 85.6875 96.1251 85.7396 96.5678 85.8438C97.0105 85.9479 97.4272 86.1042 97.8178 86.3021ZM110.198 91.2865C110.198 92.0781 110.068 92.8125 109.802 93.5C109.537 94.1823 109.162 94.7865 108.677 95.3125C108.203 95.8281 107.63 96.2344 106.964 96.5313C106.313 96.8229 105.594 96.9688 104.807 96.9688C104.026 96.9688 103.307 96.8229 102.656 96.5313C102 96.2344 101.427 95.8281 100.943 95.3125C100.469 94.7865 100.099 94.1823 99.8334 93.5C99.5678 92.8125 99.4376 92.0781 99.4376 91.2865C99.4376 90.5 99.5678 89.7656 99.8334 89.0781C100.099 88.3958 100.469 87.7969 100.943 87.2813C101.427 86.7552 102 86.3438 102.656 86.0469C103.307 85.7552 104.026 85.6094 104.807 85.6094C105.594 85.6094 106.313 85.7552 106.964 86.0469C107.63 86.3438 108.203 86.7552 108.677 87.2813C109.162 87.7969 109.537 88.3958 109.802 89.0781C110.068 89.7656 110.198 90.5 110.198 91.2865ZM108.141 91.2865C108.141 90.5833 107.995 89.9479 107.708 89.3802C107.427 88.8021 107.037 88.3438 106.537 88.0052C106.042 87.6719 105.464 87.5 104.807 87.5C104.156 87.5 103.578 87.6719 103.083 88.0052C102.583 88.3438 102.193 88.7969 101.912 89.3646C101.636 89.9323 101.495 90.5729 101.495 91.2865C101.495 91.9948 101.636 92.6354 101.912 93.2135C102.193 93.7813 102.583 94.2344 103.083 94.5729C103.578 94.9063 104.156 95.0781 104.807 95.0781C105.464 95.0781 106.042 94.9063 106.537 94.5729C107.037 94.2344 107.427 93.7813 107.708 93.2135C107.995 92.6354 108.141 91.9948 108.141 91.2865ZM113.162 96.8125C112.865 96.8125 112.599 96.724 112.365 96.5469C112.136 96.3542 112.016 96.125 112.016 95.849V86.7292C112.016 86.4531 112.109 86.2292 112.287 86.0469C112.479 85.8594 112.708 85.7656 112.984 85.7656H117.552C118.099 85.7656 118.609 85.9115 119.089 86.2083C119.573 86.4896 119.964 86.8906 120.261 87.4063C120.557 87.9115 120.703 88.4948 120.703 89.1563C120.703 89.5573 120.62 89.9479 120.448 90.3281C120.292 90.7031 120.068 91.0469 119.787 91.3542C119.511 91.6563 119.198 91.8958 118.849 92.0625L118.865 91.6979C119.162 91.8594 119.406 92.0469 119.594 92.2656C119.797 92.4792 119.948 92.7083 120.052 92.9635C120.172 93.2031 120.24 93.4688 120.261 93.75C120.302 94.0156 120.328 94.2448 120.339 94.4479C120.359 94.6458 120.391 94.8125 120.432 94.9531C120.49 95.0885 120.583 95.1927 120.719 95.2656C120.953 95.401 121.094 95.6042 121.146 95.8646C121.214 96.1198 121.151 96.3438 120.974 96.5469C120.859 96.6823 120.708 96.7708 120.531 96.8125C120.349 96.8438 120.172 96.8438 119.99 96.8125C119.813 96.7708 119.662 96.7188 119.547 96.6563C119.37 96.5521 119.188 96.3958 119.011 96.1979C118.828 95.9896 118.682 95.7083 118.563 95.3594C118.458 95.0156 118.406 94.5677 118.406 94.0208C118.406 93.8385 118.375 93.6771 118.313 93.5313C118.245 93.3698 118.156 93.2396 118.042 93.1354C117.927 93.0208 117.776 92.9375 117.599 92.8854C117.417 92.8177 117.208 92.7865 116.964 92.7865H113.761L114 92.4271V95.849C114 96.125 113.927 96.3542 113.776 96.5469C113.63 96.724 113.422 96.8125 113.162 96.8125ZM113.776 91.1615H117.469C117.662 91.1615 117.844 91.0781 118.026 90.9115C118.203 90.7292 118.354 90.4948 118.469 90.1979C118.583 89.8958 118.646 89.5625 118.646 89.2031C118.646 88.7448 118.516 88.3594 118.266 88.0521C118.021 87.7396 117.755 87.5781 117.469 87.5781H113.807L114 87.0729V91.5417L113.776 91.1615ZM127.656 85.7656C128.417 85.7656 129.094 85.9062 129.682 86.1927C130.276 86.474 130.771 86.875 131.172 87.3906C131.583 87.8958 131.891 88.4844 132.094 89.1563C132.302 89.8229 132.412 90.5313 132.412 91.2865C132.412 92.3073 132.224 93.2396 131.854 94.0833C131.484 94.9115 130.948 95.5781 130.24 96.0729C129.542 96.5677 128.677 96.8125 127.656 96.8125H123.865C123.594 96.8125 123.359 96.724 123.167 96.5469C122.99 96.3542 122.901 96.125 122.901 95.849V86.7292C122.901 86.4531 122.99 86.2292 123.167 86.0469C123.359 85.8594 123.594 85.7656 123.865 85.7656H127.656ZM127.495 95C128.162 95 128.708 94.8281 129.13 94.4948C129.552 94.1458 129.859 93.6927 130.047 93.1354C130.25 92.5677 130.349 91.9531 130.349 91.2865C130.349 90.7969 130.292 90.3281 130.177 89.8854C130.068 89.4323 129.901 89.0365 129.667 88.7031C129.432 88.3542 129.141 88.0781 128.781 87.8802C128.422 87.6823 127.995 87.5781 127.495 87.5781H124.724L124.88 87.4375V95.1719L124.787 95H127.495ZM137.797 96.9688C137.057 96.9688 136.391 96.8802 135.802 96.7031C135.208 96.5156 134.641 96.1875 134.104 95.724C133.964 95.6094 133.859 95.4792 133.787 95.3281C133.714 95.1823 133.677 95.0365 133.677 94.8854C133.677 94.6458 133.761 94.4375 133.927 94.2552C134.109 94.0677 134.333 93.974 134.594 93.974C134.797 93.974 134.974 94.0365 135.136 94.1615C135.537 94.4896 135.932 94.7344 136.323 94.901C136.724 95.0729 137.214 95.1563 137.797 95.1563C138.188 95.1563 138.547 95.099 138.875 94.9844C139.203 94.8542 139.469 94.6927 139.667 94.4948C139.87 94.2813 139.969 94.0469 139.969 93.7813C139.969 93.4688 139.875 93.1979 139.682 92.9792C139.495 92.7552 139.203 92.5729 138.813 92.4271C138.422 92.2656 137.922 92.1458 137.323 92.0625C136.75 91.9792 136.25 91.8542 135.818 91.6823C135.38 91.5052 135.016 91.2813 134.719 91.0208C134.438 90.7448 134.219 90.4323 134.073 90.0729C133.922 89.7031 133.849 89.2969 133.849 88.8438C133.849 88.1563 134.026 87.5729 134.375 87.0885C134.734 86.6042 135.214 86.2396 135.818 85.9844C136.417 85.7344 137.083 85.6094 137.813 85.6094C138.5 85.6094 139.136 85.7135 139.714 85.9219C140.307 86.125 140.787 86.3802 141.156 86.6979C141.464 86.9375 141.615 87.2188 141.615 87.5313C141.615 87.7656 141.526 87.974 141.349 88.1615C141.167 88.3542 140.958 88.4479 140.714 88.4479C140.557 88.4479 140.412 88.401 140.287 88.3073C140.115 88.1563 139.891 88.0208 139.604 87.8958C139.318 87.7604 139.016 87.6458 138.698 87.5625C138.386 87.4688 138.089 87.4219 137.813 87.4219C137.359 87.4219 136.974 87.4792 136.656 87.5938C136.349 87.7135 136.115 87.8698 135.958 88.0677C135.802 88.2708 135.719 88.5 135.719 88.7656C135.719 89.0781 135.807 89.3438 135.99 89.5521C136.182 89.7552 136.448 89.9167 136.797 90.0417C137.146 90.1563 137.563 90.2656 138.052 90.3594C138.682 90.474 139.24 90.6094 139.714 90.7656C140.203 90.9271 140.604 91.1302 140.917 91.3854C141.234 91.625 141.474 91.9375 141.63 92.3125C141.792 92.6823 141.87 93.1354 141.87 93.6719C141.87 94.3542 141.682 94.9479 141.297 95.4375C140.917 95.9323 140.417 96.3125 139.792 96.5781C139.182 96.8385 138.516 96.9688 137.797 96.9688Z" fill="#15C233"/>
</svg>
